<svg xmlns="http://www.w3.org/2000/svg" shape-rendering="geometricPrecision" text-rendering="geometricPrecision" image-rendering="optimizeQuality" fill-rule="evenodd" clip-rule="evenodd" viewBox="0 0 454 512.02"><path d="M220.79 512.02h-35.04c-35.87 0-68.53-14.7-92.21-38.37-23.68-23.64-38.37-56.29-38.37-92.21V187.89c0-35.89 14.69-68.53 38.35-92.19 23.7-23.7 56.33-38.39 92.23-38.39h35.04c5.89 0 11.69.39 17.38 1.17-.98 3.77-1.5 7.71-1.5 11.77v7.78a109.53 109.53 0 0 0-15.88-1.15h-7.73v48.18c9.38 3.88 16.02 13.14 16.02 23.87v37.35c0 10.72-6.66 19.97-16.02 23.85v32.94H331.8v-44.18h19.57v182.55c0 35.92-14.69 68.57-38.35 92.23l-.6.55c-23.62 23.33-56.04 37.8-91.63 37.8zM424.31 40.56H283.87c-16.33 0-29.69 13.35-29.69 29.69v81.44c0 16.34 13.36 29.69 29.69 29.69h140.44c16.34 0 29.69-13.35 29.69-29.69V70.25c0-16.34-13.35-29.69-29.69-29.69zm-128.09 56.7-2.68-15.37c8.66-2.61 17.3-3.92 25.89-3.92 3.44 0 6.3.11 8.61.31 2.31.21 4.69.72 7.17 1.55 2.48.82 4.43 1.96 5.88 3.4 3.3 3.3 4.95 8.35 4.95 15.16 0 6.81-1.93 11.83-5.78 15.06-3.85 3.23-11.96 6.95-24.34 11.14v2.89H345v16.5h-52.9v-12.89c0-3.85.72-7.53 2.16-11.04.9-1.99 3.06-4.4 6.5-7.22 1.85-1.58 4.35-3.09 7.48-4.53 3.13-1.45 6.08-2.81 8.87-4.08 2.78-1.27 5.03-2.32 6.75-3.15v-5.56c-3.09-.35-5.95-.52-8.56-.52-6.33 0-12.69.76-19.08 2.27zm82.21-17.74 7.12 17.23h1.03l7.11-17.23h22.39l-14.34 31.15 14.34 33.31h-22.9l-7.74-18.57h-.93l-7.63 18.57h-21.86l14.02-32.69-14.02-31.77h23.41zm-296.4-19.6L44.18 22.08c-4.96-4.96-13.02-4.96-17.99 0-4.96 4.97-4.96 13.03 0 18l37.45 37.44c5.44-6.53 11.62-12.44 18.39-17.6zm55.41-22.22L122.67 6.61c-3.35-6.15-11.06-8.41-17.2-5.06-6.15 3.36-8.42 11.06-5.06 17.22l12.77 24.41 24.26-5.48zm-98.43 93.81c1.34-8.37 3.62-16.44 6.71-24.1L18.77 92.87c-6.16-3.36-13.86-1.09-17.22 5.05-3.35 6.15-1.09 13.86 5.06 17.21l32.4 16.38zm154.47-6.43c-9.37 3.88-16.02 13.16-16.02 23.85v37.35c0 10.68 6.67 19.96 16.02 23.85v32.94H74.74v-55.18c0-30.53 12.49-58.29 32.59-78.42 20.13-20.1 47.89-32.59 78.42-32.59h7.73v48.2zM331.8 262.65H74.74v118.79c0 30.51 12.5 58.27 32.62 78.39 20.09 20.14 47.85 32.62 78.39 32.62h35.04c30.3 0 57.86-12.29 77.92-32.1l.47-.52c20.12-20.12 32.62-47.88 32.62-78.39V262.65z"/></svg>