<svg xmlns="http://www.w3.org/2000/svg" width="513px" height="513px">
    <path fill-rule="evenodd"  opacity="0" fill="rgb(198, 228, 253)"
          d="M0.667,0.230 L512.667,0.230 L512.667,512.249 L0.667,512.249 L0.667,0.230 Z"/>
    <path fill-rule="evenodd"  fill="rgb(255, 255, 255)"
          d="M406.057,288.280 C406.057,364.867 343.951,426.951 267.338,426.951 C190.724,426.951 128.616,364.867 128.616,288.280 C128.616,216.768 182.771,157.907 252.321,150.422 L213.933,125.280 L213.935,101.533 L214.004,101.533 C214.097,95.658 237.935,90.900 267.333,90.900 C296.731,90.900 320.570,95.658 320.662,101.533 L320.711,101.533 L320.711,125.280 L282.328,150.419 C351.890,157.892 406.057,216.759 406.057,288.280 ZM288.667,268.372 L288.667,208.238 C288.667,205.292 286.279,202.904 283.334,202.904 L251.333,202.904 C248.388,202.904 245.1000,205.292 245.1000,208.238 L245.1000,268.366 C236.370,275.102 230.066,286.268 230.066,298.913 C230.066,319.493 246.750,336.177 267.329,336.177 C287.908,336.177 304.591,319.493 304.591,298.913 C304.591,286.272 298.292,275.109 288.667,268.372 ZM101.936,170.628 L133.514,138.959 L160.635,165.990 L129.058,197.658 L101.936,170.628 Z"/>
</svg>