<svg
        xmlns="http://www.w3.org/2000/svg"
        width="513px" height="513px">
    <path fill-rule="evenodd" opacity="0" fill="rgb(198, 228, 253)"
          d="M0.333,0.623 L512.333,0.623 L512.333,512.642 L0.333,512.642 L0.333,0.623 Z"/>
    <path fill-rule="evenodd" fill="rgb(255, 255, 255)"
          d="M402.407,216.207 C408.008,232.211 411.064,249.410 411.064,267.325 C411.064,352.757 341.810,422.013 256.381,422.013 C170.953,422.013 101.699,352.757 101.699,267.325 C101.699,183.173 168.894,114.718 252.552,112.685 C252.196,99.371 251.657,86.297 250.940,73.518 C250.569,66.912 257.757,62.440 263.705,65.600 C326.646,99.034 358.761,129.794 370.858,143.047 C374.439,146.970 374.439,152.859 370.858,156.782 C358.768,170.028 326.678,200.764 263.799,234.179 C257.809,237.362 250.566,232.962 250.940,226.310 C251.713,212.520 252.278,198.382 252.630,183.973 C209.089,193.065 176.368,231.662 176.368,277.943 C176.368,330.983 219.327,373.981 272.318,373.981 C325.309,373.981 368.267,330.983 368.267,277.943 C368.267,266.306 366.197,255.154 362.410,244.832 C377.397,234.807 390.688,225.209 402.407,216.207 Z"/>
</svg>