<svg
        xmlns="http://www.w3.org/2000/svg"
        width="513px" height="513px">
    <path fill-rule="evenodd" opacity="0" fill="rgb(198, 228, 253)"
          d="M0.333,0.053 L512.333,0.053 L512.333,512.072 L0.333,512.072 L0.333,0.053 Z"/>
    <path fill-rule="evenodd" fill="rgb(255, 255, 255)"
          d="M406.505,296.853 C372.134,331.245 313.748,330.629 265.560,298.904 C263.099,299.265 260.752,300.378 258.913,302.218 L138.529,422.674 C132.896,428.310 123.769,428.317 118.144,422.688 L91.450,395.978 C90.491,395.018 89.698,393.957 89.067,392.829 C88.516,391.844 87.970,390.856 87.360,389.905 C86.322,388.283 85.718,386.356 85.720,384.286 L85.749,340.022 C85.754,333.547 91.003,328.295 97.475,328.291 L132.239,328.266 C136.411,328.264 140.412,326.603 143.364,323.650 C146.316,320.697 147.975,316.693 147.978,312.519 L148.001,277.733 C148.006,271.259 153.256,266.006 159.727,266.001 L194.515,265.978 C198.672,265.974 202.658,264.320 205.599,261.377 L208.120,258.855 C211.772,255.201 214.040,250.553 214.807,245.634 C187.191,198.770 188.080,144.000 220.912,111.149 C258.156,73.883 323.584,77.736 373.692,117.714 C378.312,120.922 382.740,124.522 386.905,128.561 C391.797,133.304 396.099,138.444 399.852,143.869 C439.891,194.021 443.777,259.559 406.505,296.853 ZM372.843,190.512 C369.885,168.312 349.500,147.915 327.313,144.955 C305.126,141.995 289.538,157.592 292.496,179.793 C295.454,201.993 315.839,222.390 338.026,225.350 C360.213,228.310 375.801,212.713 372.843,190.512 Z"/>
</svg>