<svg
        xmlns="http://www.w3.org/2000/svg"
        width="513px" height="513px">
    <path fill-rule="evenodd" opacity="0" fill="rgb(198, 228, 253)"
          d="M0.333,0.406 L512.333,0.406 L512.333,512.425 L0.333,512.425 L0.333,0.406 Z"/>
    <path fill-rule="evenodd" fill="rgb(255, 255, 255)"
          d="M396.617,379.315 L300.706,434.472 C283.078,444.611 268.644,436.183 268.644,415.743 L268.644,298.933 C268.644,278.492 283.276,253.836 301.163,244.144 L396.160,192.666 C414.048,182.974 428.678,191.771 428.678,212.210 L428.678,323.710 C428.678,344.151 414.245,369.176 396.617,379.315 ZM348.662,286.543 C338.468,286.543 330.195,297.639 330.195,311.321 C330.195,325.005 338.468,336.099 348.662,336.099 C358.856,336.099 367.127,325.005 367.127,311.321 C367.127,297.639 358.856,286.543 348.662,286.543 ZM383.850,167.888 L288.853,219.366 C270.965,229.058 241.703,229.058 223.815,219.366 L128.818,167.888 C110.931,158.197 110.931,142.336 128.818,132.645 L223.815,81.165 C241.703,71.474 270.965,71.474 288.853,81.165 L383.850,132.645 C401.738,142.336 401.738,158.197 383.850,167.888 ZM188.627,131.682 C175.030,131.682 164.007,140.006 164.007,150.266 C164.007,160.525 175.030,168.849 188.627,168.849 C202.224,168.849 213.247,160.525 213.247,150.266 C213.247,140.006 202.224,131.682 188.627,131.682 ZM324.042,131.682 C310.443,131.682 299.421,140.006 299.421,150.266 C299.421,160.525 310.443,168.849 324.042,168.849 C337.639,168.849 348.662,160.525 348.662,150.266 C348.662,140.006 337.639,131.682 324.042,131.682 ZM211.504,244.144 C229.393,253.836 244.023,278.492 244.023,298.933 L244.023,415.743 C244.023,436.183 229.591,444.611 211.961,434.472 L116.051,379.315 C98.421,369.176 83.988,344.151 83.988,323.710 L83.988,212.210 C83.988,191.771 98.619,182.974 116.507,192.666 L211.504,244.144 ZM213.247,323.710 C223.442,323.710 231.713,312.615 231.713,298.933 C231.713,285.248 223.442,274.155 213.247,274.155 C203.053,274.155 194.782,285.248 194.782,298.933 C194.782,312.615 203.053,323.710 213.247,323.710 ZM164.007,336.099 C174.199,336.099 182.472,325.005 182.472,311.321 C182.472,297.639 174.199,286.543 164.007,286.543 C153.812,286.543 145.540,297.639 145.540,311.321 C145.540,325.005 153.812,336.099 164.007,336.099 ZM96.299,323.710 C96.299,337.393 104.571,348.487 114.764,348.487 C124.959,348.487 133.230,337.393 133.230,323.710 C133.230,310.027 124.959,298.933 114.764,298.933 C104.571,298.933 96.299,310.027 96.299,323.710 Z"/>
</svg>