<svg xmlns="http://www.w3.org/2000/svg" width="513px" height="513px">
    <path fill-rule="evenodd"  opacity="0" fill="rgb(198, 228, 253)"
          d="M0.333,0.877 L512.333,0.877 L512.333,512.896 L0.333,512.896 L0.333,0.877 Z"/>
    <path fill-rule="evenodd"  fill="rgb(255, 255, 255)"
          d="M412.118,376.185 C411.499,395.784 394.237,411.559 373.559,411.559 L138.218,411.559 C117.541,411.559 100.279,395.784 99.660,376.185 L91.358,113.529 C91.160,107.287 96.091,102.215 102.371,102.215 L157.521,102.215 L116.098,160.883 C114.019,163.829 114.721,166.217 117.667,166.217 L160.333,166.217 C163.278,166.217 167.352,163.829 169.432,160.883 L210.854,102.215 L258.854,102.215 L217.432,160.883 C215.353,163.829 216.054,166.217 218.1000,166.217 L261.667,166.217 C264.612,166.217 268.686,163.829 270.765,160.883 L312.187,102.215 L360.188,102.215 L318.766,160.883 C316.685,163.829 317.387,166.217 320.333,166.217 L362.1000,166.217 C365.946,166.217 370.019,163.829 372.099,160.883 L413.080,102.838 C417.497,104.367 420.577,108.574 420.420,113.529 L412.118,376.185 ZM322.176,280.745 C309.154,267.524 277.812,239.945 218.889,210.110 C211.538,206.388 202.951,211.996 202.951,220.478 L202.951,357.414 C202.951,365.897 211.538,371.505 218.889,367.783 C277.812,337.948 309.154,310.369 322.176,297.148 C326.627,292.628 326.627,285.264 322.176,280.745 Z"/>
</svg>