<svg xmlns="http://www.w3.org/2000/svg" width="513px" height="513px">
    <path fill-rule="evenodd"  opacity="0" fill="rgb(198, 228, 253)"
          d="M0.333,0.643 L512.333,0.643 L512.333,512.662 L0.333,512.662 L0.333,0.643 Z"/>
    <path fill-rule="evenodd"  fill="rgb(255, 255, 255)"
          d="M434.737,262.548 L263.969,346.053 C259.158,348.405 253.331,348.405 248.521,346.053 L77.752,262.548 C72.453,259.956 72.453,253.178 77.752,250.587 L132.873,223.633 L248.521,280.184 C253.331,282.536 259.158,282.536 263.969,280.184 L379.616,223.633 L434.737,250.587 C440.036,253.178 440.036,259.956 434.737,262.548 ZM434.737,166.277 L263.969,249.783 C259.158,252.135 253.331,252.135 248.521,249.783 L77.752,166.277 C72.453,163.686 72.453,156.908 77.752,154.317 L248.521,70.811 C253.331,68.458 259.158,68.458 263.969,70.811 L434.737,154.317 C440.036,156.908 440.036,163.686 434.737,166.277 ZM77.752,346.857 L132.873,319.903 L248.521,376.454 C253.331,378.806 259.158,378.806 263.969,376.454 L379.616,319.903 L434.737,346.857 C440.036,349.448 440.036,356.226 434.737,358.818 L263.969,442.323 C259.158,444.676 253.331,444.676 248.521,442.323 L77.752,358.818 C72.453,356.226 72.453,349.448 77.752,346.857 Z"/>
</svg>