<svg
        xmlns="http://www.w3.org/2000/svg"
        width="513px" height="513px">
    <path fill-rule="evenodd" opacity="0" fill="rgb(198, 228, 253)"
          d="M0.667,0.937 L512.667,0.937 L512.667,512.956 L0.667,512.956 L0.667,0.937 Z"/>
    <path fill-rule="evenodd" fill="rgb(255, 255, 255)"
          d="M256.666,416.952 C168.301,416.952 96.666,345.315 96.666,256.946 C96.666,168.577 168.301,96.940 256.666,96.940 C345.032,96.940 416.666,168.577 416.666,256.946 C416.666,345.315 345.032,416.952 256.666,416.952 ZM233.397,373.782 L279.449,373.782 C287.079,373.782 292.899,367.607 292.458,360.156 L285.991,250.810 C285.702,245.903 280.593,241.997 274.578,241.997 L238.268,241.997 C232.252,241.997 227.143,245.903 226.854,250.810 L220.386,360.156 C219.945,367.607 225.766,373.782 233.397,373.782 ZM256.658,146.817 C236.442,146.817 220.054,163.207 220.054,183.424 C220.054,203.642 236.442,220.032 256.658,220.032 C276.876,220.032 293.265,203.642 293.265,183.424 C293.265,163.207 276.876,146.817 256.658,146.817 Z"/>
</svg>