<svg
        xmlns="http://www.w3.org/2000/svg"
        width="513px" height="513px">
    <path fill-rule="evenodd" opacity="0" fill="rgb(198, 228, 253)"
          d="M0.667,0.230 L512.667,0.230 L512.667,512.249 L0.667,512.249 L0.667,0.230 Z"/>
    <path fill-rule="evenodd" fill="rgb(255, 255, 255)"
          d="M377.158,388.560 L303.686,415.643 C296.325,418.357 288.605,412.657 288.605,404.510 L288.605,108.096 C288.605,99.949 296.325,94.249 303.686,96.962 L377.158,124.046 C381.680,125.712 384.704,130.174 384.704,135.179 L384.704,377.427 C384.704,382.432 381.680,386.894 377.158,388.560 ZM209.648,415.643 L136.176,388.546 C131.653,386.878 128.630,382.414 128.630,377.406 L128.630,135.033 C128.630,130.025 131.653,125.561 136.176,123.893 L209.648,96.796 C217.008,94.082 224.728,99.784 224.728,107.936 L224.728,404.503 C224.728,412.655 217.008,418.358 209.648,415.643 Z"/>
</svg>