<svg
        xmlns="http://www.w3.org/2000/svg"
        width="512px" height="513px">
    <path fill-rule="evenodd" opacity="0" fill="rgb(198, 228, 253)"
          d="M0.000,0.112 L511.1000,0.112 L511.1000,512.131 L0.000,512.131 L0.000,0.112 Z"/>
    <path fill-rule="evenodd" fill="rgb(255, 255, 255)"
          d="M429.301,277.676 C414.020,295.567 398.276,313.047 382.103,330.115 C396.274,337.037 408.018,343.645 416.035,348.404 C422.070,351.985 423.122,360.218 418.204,365.127 L365.144,418.085 C360.225,422.994 351.976,421.944 348.388,415.920 C343.629,407.934 337.021,396.237 330.099,382.126 C312.997,398.336 295.482,414.115 277.554,429.429 C265.071,440.088 246.350,440.118 233.901,429.498 C216.077,414.287 198.664,398.614 181.664,382.512 C174.790,396.524 168.236,408.141 163.509,416.086 C159.925,422.111 151.687,423.161 146.776,418.251 L93.792,365.294 C88.880,360.385 89.931,352.152 95.958,348.569 C103.911,343.842 115.541,337.287 129.570,330.414 C113.484,313.427 97.826,296.029 82.630,278.221 C72.010,265.771 72.039,247.049 82.698,234.566 C97.982,216.673 113.728,199.192 129.902,182.121 C115.724,175.179 103.974,168.549 95.958,163.777 C89.931,160.189 88.880,151.945 93.792,147.029 L146.776,93.996 C151.687,89.080 159.925,90.131 163.509,96.164 C168.279,104.192 174.908,115.962 181.850,130.165 C198.968,113.939 216.500,98.143 234.446,82.813 C246.926,72.156 265.649,72.125 278.094,82.745 C295.916,97.951 313.325,113.620 330.323,129.718 C337.163,115.791 343.680,104.242 348.388,96.330 C351.976,90.298 360.225,89.247 365.144,94.162 L418.204,147.195 C423.122,152.112 422.070,160.356 416.035,163.943 C408.114,168.652 396.550,175.170 382.604,182.011 C398.629,198.941 414.229,216.279 429.370,234.027 C439.990,246.471 439.958,265.196 429.301,277.676 ZM388.577,239.225 C376.101,224.602 363.203,210.356 349.944,196.459 C339.037,200.743 327.487,204.721 315.635,207.975 C308.748,209.864 302.444,203.563 304.335,196.680 C307.592,184.825 311.574,173.274 315.863,162.366 C301.903,149.038 287.589,136.076 272.895,123.539 C263.378,115.418 249.061,115.442 239.517,123.592 C224.708,136.242 210.278,149.318 196.207,162.766 C200.405,173.507 204.302,184.863 207.499,196.514 C209.387,203.397 203.092,209.698 196.215,207.807 C184.571,204.606 173.220,200.704 162.485,196.499 C149.096,210.516 136.074,224.888 123.475,239.638 C115.324,249.184 115.301,263.500 123.423,273.021 C135.960,287.713 148.920,302.027 162.248,315.986 C173.053,311.752 184.485,307.822 196.215,304.601 C203.092,302.714 209.387,309.006 207.499,315.879 C204.276,327.609 200.342,339.041 196.103,349.845 C210.073,363.185 224.398,376.156 239.101,388.703 C248.621,396.825 262.937,396.802 272.483,388.651 C287.260,376.028 301.659,362.980 315.701,349.564 C311.474,338.793 307.551,327.402 304.335,315.714 C302.444,308.840 308.748,302.548 315.635,304.435 C327.327,307.640 338.723,311.549 349.499,315.761 C362.894,301.738 375.921,287.360 388.524,272.605 C396.674,263.061 396.698,248.742 388.577,239.225 ZM280.091,287.172 C264.043,288.438 247.920,288.438 231.871,287.172 C228.195,286.881 225.216,283.901 224.925,280.223 C223.658,264.168 223.658,248.038 224.925,231.983 C225.216,228.304 228.195,225.324 231.871,225.033 C247.920,223.767 264.043,223.767 280.091,225.033 C283.767,225.324 286.747,228.304 287.037,231.982 C288.304,248.038 288.304,264.168 287.037,280.223 C286.747,283.901 283.767,286.881 280.091,287.172 Z"/>
</svg>