<svg xmlns="http://www.w3.org/2000/svg" width="512" height="512" viewBox="0 0 512 512">
    <path
        d="M447.4,256.327s-17.807,14.841-46.953,36.187a149.9,149.9,0,0,0-1.019-76.245A518.753,518.753,0,0,1,447.4,256.327Zm-61.709,73.192a519.364,519.364,0,0,1,5.6,62.268s-23.094-2.1-58.809-7.614A149.757,149.757,0,0,0,385.687,329.519Zm-56.664-203.05a519.314,519.314,0,0,1,62.266-5.6s-2.1,23.095-7.615,58.81A149.759,149.759,0,0,0,329.023,126.469ZM215.775,112.733a518.67,518.67,0,0,1,40.059-47.976s14.842,17.81,36.184,46.955A149.865,149.865,0,0,0,215.775,112.733Zm-89.3,69.522c-3.358-21.5-5.664-42.569-6.094-61.388,0,0,23.62,1.209,60.682,6.5A149.768,149.768,0,0,0,126.473,182.255Zm-62.2,74.072s17.558-15.839,47.493-38.287a149.84,149.84,0,0,0,.219,77.385C94.409,282.6,77.882,269.33,64.272,256.327ZM181.764,385.693c-21.5,3.357-42.567,5.664-61.385,6.094,0,0,1.211-23.623,6.506-60.684A149.77,149.77,0,0,0,181.764,385.693ZM138.729,256.327a117.1,117.1,0,1,1,117.1,117.109A117.107,117.107,0,0,1,138.729,256.327ZM294.916,400.186c-12.824,17.573-26.083,34.1-39.082,47.71,0,0-15.842-17.555-38.3-47.5A149.812,149.812,0,0,0,294.916,400.186Z" />
</svg>
