<svg
        xmlns="http://www.w3.org/2000/svg"
        width="512px" height="513px">
    <path fill-rule="evenodd" opacity="0" fill="rgb(198, 228, 253)"
          d="M0.000,0.584 L511.1000,0.584 L511.1000,512.602 L0.000,512.602 L0.000,0.584 Z"/>
    <path fill-rule="evenodd" fill="rgb(255, 255, 255)"
          d="M411.603,375.864 C410.910,395.333 393.387,410.993 372.458,410.993 L134.261,410.993 C113.331,410.993 95.808,395.333 95.115,375.864 L86.773,141.563 C85.998,119.789 103.518,101.990 125.915,101.990 L349.081,101.990 C354.554,101.990 359.801,104.173 363.660,108.055 L410.882,155.560 C416.157,160.867 418.1000,168.122 418.733,175.600 L411.603,375.864 ZM334.366,128.660 L166.593,128.660 C153.813,128.660 143.688,138.973 143.978,151.632 L145.014,196.924 C145.297,209.279 155.690,219.249 168.229,219.249 L332.839,219.249 C345.379,219.249 355.760,209.279 356.028,196.924 L357.010,151.632 C357.284,138.973 347.147,128.660 334.366,128.660 ZM334.937,256.547 L171.331,256.547 C158.868,256.547 148.990,265.972 149.265,277.544 L151.456,369.661 C151.717,380.707 161.734,389.621 173.830,389.621 L332.605,389.621 C344.700,389.621 354.706,380.707 354.955,369.661 L357.030,277.544 C357.291,265.972 347.400,256.547 334.937,256.547 ZM302.781,365.947 L198.756,365.947 C189.685,365.947 182.223,359.104 182.087,350.633 L181.344,304.055 C181.206,295.374 188.574,288.312 197.803,288.312 L303.639,288.312 C312.868,288.312 320.245,295.374 320.117,304.055 L319.431,350.633 C319.307,359.104 311.852,365.947 302.781,365.947 ZM262.030,196.992 L193.841,196.992 C185.995,196.992 179.537,190.850 179.416,183.252 L179.240,172.201 C179.118,164.540 185.432,158.312 193.343,158.312 L262.101,158.312 C270.012,158.312 276.395,164.540 276.357,172.201 L276.303,183.252 C276.266,190.850 269.876,196.992 262.030,196.992 Z"/>
</svg>