<svg
        xmlns="http://www.w3.org/2000/svg"
        width="305px" height="337px">
    <path d="M304.391,198.280 C304.391,274.867 242.284,336.951 165.671,336.951 C89.057,336.951 26.949,274.867 26.949,198.280 C26.949,126.768 81.104,67.907 150.654,60.422 L112.266,35.280 L112.268,11.533 L112.338,11.533 C112.430,5.658 136.269,0.900 165.667,0.900 C195.065,0.900 218.903,5.658 218.996,11.533 L219.044,11.533 L219.044,35.280 L180.662,60.419 C250.223,67.892 304.391,126.759 304.391,198.280 ZM165.667,102.237 C112.648,102.237 69.667,145.220 69.667,198.241 C69.667,251.262 112.648,294.245 165.667,294.245 C218.686,294.245 261.667,251.262 261.667,198.241 C261.667,145.220 218.686,102.237 165.667,102.237 ZM165.666,267.577 C144.260,267.577 125.126,257.871 112.408,242.625 L165.666,198.242 L165.666,128.906 C203.958,128.906 234.999,159.949 234.999,198.242 C234.999,236.534 203.958,267.577 165.666,267.577 ZM0.269,80.628 L31.847,48.959 L58.968,75.990 L27.391,107.658 L0.269,80.628 Z"/>
</svg>