<svg xmlns="http://www.w3.org/2000/svg" width="512" height="512" viewBox="0 0 512 512">
    <path
        d="M251.2,437.27c-78.679,0-145.437-50.318-170.342-120.459A165.714,165.714,0,0,0,311.658,86C381.8,110.907,432.113,177.668,432.113,256.35A180.917,180.917,0,0,1,251.2,437.27Zm-33.85-279.507-43.122,16.1L157.9,217.207a2.815,2.815,0,0,1-5.265,0l-16.326-43.343-43.122-16.1a2.8,2.8,0,0,1,0-5.253l43.122-16.1,16.326-43.343a2.815,2.815,0,0,1,5.265,0l16.325,43.343,43.122,16.1A2.8,2.8,0,0,1,217.349,157.763Z" />
</svg>
