<svg
        xmlns="http://www.w3.org/2000/svg"
        width="321px" height="321px">
    <path
            d="M160.667,320.579 C72.301,320.579 0.667,248.942 0.667,160.574 C0.667,72.205 72.301,0.567 160.667,0.567 C249.033,0.567 320.667,72.205 320.667,160.574 C320.667,248.942 249.033,320.579 160.667,320.579 ZM258.450,208.073 L187.333,144.798 L187.333,43.235 C187.333,37.344 182.558,32.569 176.667,32.569 L144.667,32.569 C138.776,32.569 133.1000,37.344 133.1000,43.235 L133.1000,160.574 C133.1000,161.059 134.043,161.533 134.106,162.001 C133.563,165.531 134.732,169.247 137.542,171.747 L224.093,248.756 C228.439,252.622 235.038,252.114 238.833,247.621 L259.447,223.211 C263.242,218.717 262.796,211.940 258.450,208.073 Z"/>
</svg>