<svg
        xmlns="http://www.w3.org/2000/svg"
        width="512px" height="513px">
    <path fill-rule="evenodd" opacity="0" fill="rgb(198, 228, 253)"
          d="M0.000,0.524 L511.1000,0.524 L511.1000,512.543 L0.000,512.543 L0.000,0.524 Z"/>
    <path fill-rule="evenodd" fill="rgb(255, 255, 255)"
          d="M384.000,411.206 L127.1000,411.206 C113.272,411.206 101.333,399.267 101.333,384.539 L101.333,128.528 C101.333,113.800 113.272,101.861 127.1000,101.861 L384.000,101.861 C398.727,101.861 410.667,113.800 410.667,128.528 L410.667,384.539 C410.667,399.267 398.727,411.206 384.000,411.206 ZM176.828,290.545 C188.417,308.205 220.268,354.013 256.577,382.871 C259.326,385.056 263.240,385.056 265.990,382.871 C302.298,354.013 334.149,308.205 345.738,290.545 C347.784,287.428 345.578,283.272 341.886,283.272 L306.394,283.272 L303.100,283.272 L309.299,224.952 C309.734,221.883 307.332,219.142 304.208,219.142 L218.360,219.142 C215.236,219.142 212.834,221.883 213.270,224.952 L219.469,283.272 L216.172,283.272 L180.679,283.272 C176.988,283.272 174.782,287.428 176.828,290.545 ZM378.667,149.862 C378.667,141.026 371.503,133.862 362.667,133.862 L149.334,133.862 C140.497,133.862 133.333,141.026 133.333,149.862 L133.333,165.864 C133.333,174.701 140.497,181.864 149.334,181.864 L362.667,181.864 C371.503,181.864 378.667,174.701 378.667,165.864 L378.667,149.862 Z"/>
</svg>