<svg
        xmlns="http://www.w3.org/2000/svg"
        width="513px" height="513px">
    <path fill-rule="evenodd" opacity="0" fill="rgb(198, 228, 253)"
          d="M0.333,0.290 L512.333,0.290 L512.333,512.309 L0.333,512.309 L0.333,0.290 Z"/>
    <path fill-rule="evenodd" fill="rgb(255, 255, 255)"
          d="M311.149,300.674 L274.499,262.068 C271.475,258.882 271.475,253.717 274.499,250.530 L311.149,211.925 C318.467,204.216 330.980,209.676 330.980,220.578 L330.980,256.300 L330.980,292.021 C330.980,302.924 318.467,308.383 311.149,300.674 ZM336.530,380.971 L336.530,415.014 C336.530,432.993 315.178,442.177 302.351,429.717 L156.854,288.370 C140.334,272.321 140.334,245.612 156.854,229.564 L302.351,88.217 C315.178,75.757 336.530,84.941 336.530,102.918 L336.530,136.962 C336.530,147.217 332.707,157.095 325.823,164.630 L247.987,249.823 C243.270,254.987 243.270,262.946 247.987,268.111 L325.823,353.303 C332.707,360.838 336.530,370.716 336.530,380.971 Z"/>
</svg>